<svg width="27" height="39" viewBox="0 0 27 39" fill="none" xmlns="http://www.w3.org/2000/svg">
<path d="M2.856 28C2.488 28 2.152 27.912 1.848 27.736C1.544 27.552 1.3 27.308 1.116 27.004C0.94 26.692 0.852 26.352 0.852 25.984V20.092H1.836V25.924C1.836 26.212 1.932 26.456 2.124 26.656C2.324 26.856 2.564 26.956 2.844 26.956H3.384C3.464 26.956 3.504 26.996 3.504 27.076V27.88C3.504 27.96 3.464 28 3.384 28H2.856ZM7.32272 23.416C7.74672 23.416 8.13872 23.516 8.49872 23.716C8.85872 23.916 9.14272 24.188 9.35072 24.532C9.55872 24.876 9.66272 25.26 9.66272 25.684C9.66272 26.108 9.55872 26.5 9.35072 26.86C9.14272 27.22 8.85872 27.504 8.49872 27.712C8.13872 27.92 7.74672 28.024 7.32272 28.024C6.96272 28.024 6.63072 27.948 6.32672 27.796C6.02272 27.644 5.76672 27.432 5.55872 27.16C5.39872 27.416 5.18672 27.62 4.92272 27.772C4.66672 27.924 4.37872 28 4.05872 28H3.38672C3.30672 28 3.26672 27.96 3.26672 27.88V27.076C3.26672 26.996 3.30672 26.956 3.38672 26.956H4.05872C4.33872 26.956 4.57472 26.86 4.76672 26.668C4.96672 26.468 5.06672 26.232 5.06672 25.96V24.412H4.35872V23.416H7.32272ZM7.32272 26.98C7.68272 26.98 7.98672 26.856 8.23472 26.608C8.49072 26.352 8.61872 26.044 8.61872 25.684C8.61872 25.332 8.49072 25.032 8.23472 24.784C7.98672 24.536 7.68272 24.412 7.32272 24.412H6.03872V25.684C6.03872 26.044 6.16272 26.352 6.41072 26.608C6.65872 26.856 6.96272 26.98 7.32272 26.98Z" fill="black"/>
<path d="M20.5 26.988C20.6533 26.988 20.73 27.0647 20.73 27.218V27.77C20.73 27.9233 20.6533 28 20.5 28H18.982C18.9513 28.9507 18.7137 29.7327 18.269 30.346C17.8397 30.9593 17.28 31.4653 16.59 31.864C15.9 32.278 14.865 32.7917 13.485 33.405L12.841 33.681L12.542 32.83C14.106 32.1553 15.233 31.6263 15.923 31.243C16.613 30.8597 17.1343 30.4227 17.487 29.932C17.8397 29.4413 18.016 28.7973 18.016 28H14.911C14.1597 28 13.4697 27.8237 12.841 27.471C12.2123 27.103 11.714 26.6123 11.346 25.999C10.978 25.3857 10.794 24.7033 10.794 23.952C10.794 23.216 10.978 22.5337 11.346 21.905C11.714 21.261 12.2123 20.755 12.841 20.387C13.4697 20.019 14.1597 19.835 14.911 19.835C15.647 19.835 16.3217 20.019 16.935 20.387C17.5637 20.755 18.062 21.261 18.43 21.905C18.798 22.5337 18.982 23.216 18.982 23.952V26.988H20.5ZM18.016 23.929C18.016 23.377 17.8703 22.8633 17.579 22.388C17.303 21.9127 16.9273 21.537 16.452 21.261C15.9767 20.9697 15.463 20.824 14.911 20.824C14.3437 20.824 13.8223 20.9697 13.347 21.261C12.887 21.537 12.519 21.9127 12.243 22.388C11.967 22.8633 11.829 23.377 11.829 23.929C11.829 24.481 11.967 24.9947 12.243 25.47C12.519 25.9453 12.887 26.321 13.347 26.597C13.8223 26.873 14.3437 27.011 14.911 27.011H18.016V23.929ZM21.052 16.845H22.455V18.248H21.052V16.845ZM23.651 16.845H25.077V18.248H23.651V16.845ZM20.5 28C20.3467 28 20.27 27.9233 20.27 27.77V27.218C20.27 27.0647 20.3467 26.988 20.5 26.988H21.673C22.363 26.988 22.9533 26.735 23.444 26.229C23.95 25.723 24.203 25.1173 24.203 24.412V20.548H25.146V24.458C25.146 25.102 24.985 25.7 24.663 26.252C24.3563 26.7887 23.9347 27.218 23.398 27.54C22.8613 27.8467 22.271 28 21.627 28H20.5Z" fill="black"/>
<path d="M5.768 15.404H6.824V16.46H5.768V15.404ZM6.308 22.304C5.684 22.304 5.108 22.148 4.58 21.836C4.052 21.524 3.632 21.1 3.32 20.564C3.008 20.036 2.852 19.46 2.852 18.836V16.592H3.836V18.776C3.836 19.224 3.948 19.636 4.172 20.012C4.396 20.396 4.696 20.7 5.072 20.924C5.448 21.148 5.86 21.26 6.308 21.26C6.756 21.26 7.172 21.148 7.556 20.924C7.94 20.7 8.244 20.396 8.468 20.012C8.692 19.636 8.804 19.224 8.804 18.776V16.112H9.788V18.836C9.788 19.46 9.632 20.036 9.32 20.564C9.008 21.1 8.584 21.524 8.048 21.836C7.52 22.148 6.94 22.304 6.308 22.304Z" fill="black"/>
</svg>
